<svg width="100" height="100" viewBox="0 0 100 100" fill="none" xmlns="http://www.w3.org/2000/svg">
<circle cx="50" cy="50" r="50" fill="#1C71F8"/>
<path fill-rule="evenodd" clip-rule="evenodd" d="M46.6786 37.607C33.9097 42.5748 23.356 46.7097 23.2258 46.7956C22.9105 47.0039 22.6176 47.5037 22.6172 47.8343C22.6166 48.2406 22.8501 48.7183 23.1547 48.934C23.3049 49.0403 25.9396 50.0689 29.0096 51.2197C32.0795 52.3706 34.6379 53.3613 34.6949 53.4214C34.7517 53.4815 35.7549 56.6473 36.9241 60.4566C38.0933 64.2659 39.1168 67.5284 39.1983 67.7065C39.28 67.8847 39.479 68.1118 39.6407 68.2111C39.9719 68.4148 40.6499 68.4509 40.9634 68.2818C41.0763 68.2209 42.5441 67.0389 44.2251 65.6551C47.896 62.6334 47.773 62.7259 48.2701 62.6133C49.0553 62.4354 49.2085 62.526 53.8237 65.903C61.9223 71.8287 61.3322 71.4227 61.8444 71.4227C62.3748 71.4227 62.7494 71.1869 63.0031 70.6934C63.2561 70.2015 71.4985 30.0553 71.4262 29.6671C71.3162 29.0759 70.7015 28.5632 70.1125 28.5715C69.9927 28.5731 59.4474 32.6391 46.6786 37.607ZM60.859 37.5337C60.922 37.5972 60.9735 37.7195 60.9735 37.8056C60.9735 37.8917 57.4647 41.2487 53.1761 45.2654C42.7451 55.0355 42.3321 55.4308 42.0543 55.9088C41.6866 56.5413 41.5454 57.1789 41.2178 59.687C41.046 61.0015 40.858 62.0889 40.781 62.2121C40.6411 62.4361 40.2454 62.5022 39.9968 62.3434C39.926 62.2982 39.3072 60.2968 38.6217 57.8959C37.2975 53.258 37.2214 52.852 37.5389 52.1139C37.6237 51.9166 37.8325 51.6227 38.0028 51.4608C38.3849 51.0973 60.3912 37.4212 60.5966 37.4195C60.678 37.4188 60.796 37.4702 60.859 37.5337Z" fill="white"/>
</svg>
