<svg width="101" height="100" viewBox="0 0 101 100" fill="none" xmlns="http://www.w3.org/2000/svg">
<circle cx="50.3672" cy="50" r="50" fill="#1C71F8"/>
<path fill-rule="evenodd" clip-rule="evenodd" d="M60.2602 29.3259C56.0198 30.0855 52.6708 33.1592 51.5495 37.3206C51.3563 38.0374 51.3167 38.4627 51.311 39.8809C51.3073 40.8163 51.3404 41.7826 51.3847 42.0282L51.4653 42.4748L50.761 42.4108C46.1828 41.9951 42.477 40.9531 38.7889 39.0445C35.3828 37.2818 31.8338 34.5143 29.6576 31.9239C29.3325 31.5368 29.0199 31.2354 28.9629 31.2543C28.906 31.2731 28.6806 31.6897 28.4617 32.1802C26.9686 35.5269 27.2473 39.3961 29.1979 42.4011C29.7689 43.2806 30.699 44.3199 31.4547 44.9227L32.2412 45.55H31.8148C30.9029 45.55 28.9958 45.0397 27.9718 44.5217C27.7449 44.407 27.5212 44.3131 27.4747 44.3131C27.3279 44.3131 27.5222 46.2024 27.7619 47.1059C28.7059 50.6644 31.3697 53.4783 34.9075 54.6544C35.4946 54.8496 35.9086 55.0345 35.8274 55.0654C35.3584 55.2439 33.8174 55.3645 32.6205 55.3163L31.2767 55.2622L31.3437 55.527C31.4579 55.9783 32.2252 57.4237 32.7028 58.0873C34.5402 60.6405 37.5396 62.3941 40.4671 62.6267C40.9103 62.662 41.2727 62.726 41.2727 62.7691C41.2727 62.9434 38.9425 64.3755 37.5174 65.0771C34.273 66.6741 31.067 67.3651 27.2917 67.2808L25.3672 67.2378L25.9134 67.5779C26.7088 68.073 29.1186 69.2796 30.2018 69.7249C36.0322 72.122 42.8391 72.6676 49.2644 71.2533C58.7201 69.1718 66.499 62.6615 70.4277 53.5412C72.1076 49.6414 72.9503 45.8117 73.0364 41.6847L73.0752 39.8294L73.8278 39.2296C74.7903 38.4625 75.8717 37.4404 76.6859 36.528C77.3821 35.7479 78.4012 34.401 78.3408 34.341C78.3201 34.3206 78.0056 34.4244 77.6418 34.5718C76.2649 35.1297 73.0699 35.9334 72.5925 35.8422C72.4745 35.8196 72.5598 35.7189 72.8687 35.5162C73.6533 35.0013 75.0548 33.5774 75.6503 32.69C76.1674 31.9194 76.9238 30.4088 76.9272 30.1401C76.9279 30.0832 76.2904 30.3466 75.5105 30.7254C74.101 31.4101 72.2623 32.0699 70.8212 32.4081L70.0676 32.5849L69.4373 32.0063C67.0038 29.7723 63.4926 28.7468 60.2602 29.3259Z" fill="white"/>
</svg>
